<?xml version="1.0" encoding="utf-8"?>
<!-- Generator: Adobe Illustrator 16.0.0, SVG Export Plug-In . SVG Version: 6.00 Build 0)  -->
<!DOCTYPE svg PUBLIC "-//W3C//DTD SVG 1.1//EN" "http://www.w3.org/Graphics/SVG/1.1/DTD/svg11.dtd">
<svg version="1.1" xmlns="http://www.w3.org/2000/svg" xmlns:xlink="http://www.w3.org/1999/xlink" x="0px" y="0px" width="1000px"
	 height="1000px" viewBox="0 0 1000 1000" enable-background="new 0 0 1000 1000" xml:space="preserve">
<g id="Base" display="none">
	<g display="inline">
		<defs>
			<rect id="SVGID_1_" x="143.113" y="244" width="658.105" height="514.608"/>
		</defs>
		<clipPath id="SVGID_2_">
			<use xlink:href="#SVGID_1_"  overflow="visible"/>
		</clipPath>
		<g transform="matrix(1 0 0 1 -3.814697e-006 1.220703e-004)" clip-path="url(#SVGID_2_)">
			
				<image overflow="visible" width="563" height="797" xlink:href="../../../../../Drawing/idea/Avatar.jpg"  transform="matrix(3.6556 0 0 3.6556 34.9111 -1906.4888)">
			</image>
		</g>
	</g>
</g>
<g id="Eyes" display="none">
	<g display="inline">
		<defs>
			<rect id="SVGID_3_" x="244.966" y="286.87" width="510.11" height="422.001"/>
		</defs>
		<clipPath id="SVGID_4_">
			<use xlink:href="#SVGID_3_"  overflow="visible"/>
		</clipPath>
		<g clip-path="url(#SVGID_4_)">
			
				<image overflow="visible" width="564" height="564" xlink:href="../../../../../Drawing/idea/avatar_girl.jpg"  transform="matrix(4.6374 0 0 4.6374 -1466.2246 -1461.4189)">
			</image>
		</g>
	</g>
</g>
<g id="Background">
	<g>
		<g>
			<path fill="#F1D1AD" d="M314.736,52.077c0,0-78.614,24.987-145.814,95.989c0,0-66.872,73.356-83.251,114.282
				c0,0-40.213,81.992-41.56,103.889c0,0-12.434,63.676-13.013,202.054c0,0-2.574,176.285,145.71,299.498l83.371,66.596
				c0,0,9.603,7.306,57.567,24.305c50.756,17.889,251.652,49.903,353.085,7.533c101.333-42.49,163.812-111.72,163.812-111.72
				s57.448-37.459,96.136-132.37c38.778-95.085,31.265-124.707,31.265-124.707s15.442-64.021,0-192.234
				c-6.523-56.913-36.382-103.878-36.382-103.878s-16.939-48.142-70.159-122.103c-53.439-73.813-65.557-65.259-109.274-93.444
				c-43.836-28.244,7.246-10.029-104.027-39.015c-27.561-7.188-10.266-2.574-127.251-17.057
				C431.633,19.348,314.736,52.077,314.736,52.077z"/>
			<path fill="#E16F6C" d="M314.869,52.512c-6.246,2.122-12.397,4.576-18.462,7.203c-3.049,1.281-6.034,2.711-9.054,4.06
				c-2.996,1.403-5.957,2.88-8.937,4.317c-5.897,2.999-11.764,6.062-17.499,9.362l-4.325,2.433l-4.248,2.564
				c-2.82,1.729-5.681,3.392-8.467,5.175c-5.528,3.634-11.123,7.168-16.454,11.089c-2.681,1.936-5.422,3.79-8.052,5.793l-7.85,6.064
				l-3.917,3.04l-3.793,3.194l-7.584,6.387c-1.287,1.039-2.468,2.198-3.691,3.309l-3.644,3.361
				c-2.416,2.254-4.889,4.448-7.256,6.751l-6.943,7.074l-3.467,3.539c-0.567,0.587-1.18,1.187-1.708,1.763l-1.644,1.856
				c-4.37,4.961-8.683,9.984-12.95,15.041c-4.266,5.058-8.476,10.163-12.646,15.298c-4.146,5.154-8.279,10.318-12.298,15.568
				c-2.039,2.603-4.012,5.254-5.99,7.902c-1.986,2.641-3.965,5.287-5.873,7.982c-3.901,5.332-7.62,10.784-11.309,16.249l-5.34,8.312
				c-1.71,2.809-3.353,5.652-5.033,8.474c-0.872,1.396-1.554,2.881-2.339,4.317l-2.282,4.341c-0.187,0.363-0.388,0.72-0.563,1.087
				l-0.49,1.114l-0.981,2.226l-1.963,4.448l-0.064,0.144l-0.007,0.015c-3.997,8.415-7.901,16.908-11.722,25.419
				c-3.821,8.514-7.552,17.066-11.155,25.662c-3.604,8.593-7.095,17.231-10.261,25.945c-0.796,2.177-1.561,4.361-2.297,6.548
				c-0.743,2.187-1.438,4.379-2.1,6.573c-0.646,2.194-1.256,4.391-1.754,6.572c-0.508,2.179-0.881,4.351-1.034,6.356l-0.015,0.189
				l-0.041,0.244c-1.071,6.369-1.973,12.951-2.763,19.481c-0.389,3.275-0.87,6.532-1.182,9.82l-0.999,9.854l-0.995,9.853
				l-0.767,9.883c-0.494,6.59-1.063,13.172-1.495,19.767l-1.098,19.804c-0.358,6.602-0.817,13.196-0.975,19.811l-0.686,19.829
				l-0.354,9.914l-0.177,4.957l-0.069,4.962l-0.584,39.69c-0.018,1.646-0.071,3.327-0.059,4.941c0.011,1.563,0.048,3.214,0.11,4.83
				c0.109,3.25,0.307,6.515,0.536,9.776c0.482,6.524,1.155,13.048,1.985,19.555c3.437,26.012,9.176,51.768,17.249,76.775
				c4.071,12.494,8.684,24.806,13.766,36.928c2.701,5.987,5.245,12.054,8.207,17.922l2.155,4.434
				c0.709,1.482,1.434,2.957,2.222,4.399l4.612,8.714c6.384,11.484,13.067,22.831,20.56,33.644l2.771,4.081l1.385,2.041l1.462,1.986
				l5.86,7.938c1.907,2.683,4.017,5.208,6.068,7.78l6.188,7.689c16.979,20.13,35.957,38.536,56.56,55.046l61.85,50.012l7.742,6.238
				l3.871,3.119l0.892,0.715c0.346,0.25,0.673,0.449,0.999,0.644l0.979,0.601l1.063,0.587c5.706,3.116,11.737,5.85,17.805,8.43
				c3.053,1.26,6.062,2.614,9.151,3.797l9.229,3.631c3.077,1.209,6.205,2.296,9.305,3.45c3.099,1.122,6.231,2.311,9.303,3.38
				l4.718,1.554l4.714,1.401c1.569,0.472,3.178,0.873,4.765,1.313c1.591,0.433,3.182,0.869,4.789,1.254
				c3.203,0.804,6.408,1.603,9.635,2.32c3.216,0.76,6.448,1.455,9.684,2.137c12.941,2.73,25.969,5.093,39.05,7.113
				c26.157,4.078,52.493,7.017,78.895,8.9c13.207,0.873,26.427,1.479,39.653,1.795c13.227,0.237,26.456,0.195,39.667-0.284
				c13.208-0.541,26.391-1.505,39.506-2.979c13.115-1.477,26.139-3.657,38.966-6.571c12.796-2.935,25.487-6.728,37.43-11.823
				l18.108-8.209l17.594-8.914c23.274-12.402,45.514-26.707,66.621-42.481c5.338-3.865,10.426-8.057,15.62-12.104
				c5.063-4.212,10.174-8.367,15.097-12.738l3.722-3.242l3.646-3.324l3.646-3.323l3.573-3.395
				c4.751-4.506,9.462-9.196,13.798-13.912l0.313-0.342l0.398-0.268c0.536-0.359,1.151-0.814,1.743-1.24
				c0.596-0.419,1.187-0.885,1.778-1.338l1.776-1.364l1.745-1.427c2.353-1.863,4.588-3.905,6.871-5.873
				c2.203-2.071,4.454-4.088,6.605-6.218c2.121-2.162,4.324-4.239,6.39-6.458c2.059-2.226,4.149-4.42,6.183-6.669l5.945-6.89
				c1.978-2.3,3.805-4.729,5.715-7.088l2.836-3.561l2.688-3.678l5.363-7.363l5.061-7.58l2.531-3.789
				c0.809-1.285,1.581-2.595,2.373-3.892l4.727-7.796c0.389-0.652,0.799-1.292,1.17-1.955l1.093-2.001l2.188-4.001l4.379-7.999
				c2.668-5.465,5.373-10.913,7.99-16.401l7.208-16.721l6.715-17.175c2.063-5.734,4.23-11.423,6.208-17.193
				c1.923-5.79,3.974-11.546,5.688-17.39c0.871-2.918,1.835-5.814,2.632-8.748l2.423-8.793c1.488-5.885,2.929-11.779,4.087-17.708
				l0.456-2.22l0.379-2.226l0.761-4.45c0.26-1.483,0.407-2.968,0.617-4.451c0.191-1.483,0.415-2.969,0.521-4.446
				c0.122-1.478,0.293-2.963,0.377-4.433c0.056-1.463,0.164-2.942,0.181-4.393c-0.009-1.44,0.033-2.907-0.069-4.294l-0.051-1.053
				l-0.101-1c-0.038-0.322-0.058-0.692-0.112-0.961l-0.107-0.68l-0.208-1.309l0.195-0.884c0.298-1.353,0.613-2.918,0.876-4.418
				c0.287-1.51,0.537-3.04,0.774-4.576c0.521-3.055,0.886-6.162,1.324-9.245c0.345-3.106,0.734-6.205,1.04-9.318
				c0.277-3.119,0.591-6.233,0.84-9.355l0.648-9.383c0.189-3.13,0.304-6.269,0.46-9.402l0.208-4.702l0.113-4.71l0.216-9.42
				l0.014-9.428c0.007-3.144,0.026-6.285-0.069-9.43l-0.199-9.432c-0.039-1.572-0.052-3.144-0.113-4.715l-0.206-4.715
				c-0.308-6.285-0.468-12.574-0.935-18.854l-0.607-9.422l-0.304-4.711l-0.398-4.706c-0.56-6.272-1.061-12.549-1.667-18.817
				l-2.059-18.786l-0.258-2.348l-0.063-0.587l-0.067-0.493l-0.166-1.175l-0.663-4.7c-0.23-1.557-0.419-3.154-0.685-4.679
				l-0.864-4.507l-0.858-4.508c-0.318-1.505-0.704-3.017-1.053-4.525c-0.712-3.018-1.395-6.043-2.281-9.021
				c-0.846-2.987-1.623-5.993-2.617-8.94c-0.956-2.958-1.847-5.936-2.936-8.851c-1.043-2.93-2.062-5.869-3.233-8.754l-1.699-4.347
				l-1.814-4.303c-2.391-5.748-5.037-11.39-7.798-16.964l-2.114-4.157l-2.19-4.111c-1.491-2.684-3.038-5.47-4.584-7.954
				l-0.262-0.421l-0.215-0.56c-0.322-0.839-0.604-1.653-0.955-2.515l-1.053-2.584c-0.703-1.722-1.38-3.449-2.172-5.158l-2.292-5.14
				c-0.768-1.712-1.506-3.435-2.358-5.118l-4.954-10.154c-0.801-1.704-1.692-3.367-2.586-5.029l-2.662-4.996l-5.339-9.984
				l-5.695-9.802l-5.694-9.803c-1.967-3.228-4.029-6.401-6.038-9.605l-6.066-9.59l-3.032-4.796
				c-1.041-1.579-2.137-3.124-3.202-4.688l-12.846-18.73l-1.604-2.343l-0.769-1.119l-0.845-1.151l-3.377-4.604l-3.377-4.604
				l-1.688-2.302l-1.722-2.236l-6.896-8.928l-7.166-8.72c-2.431-2.862-4.954-5.626-7.425-8.446c-1.262-1.38-2.581-2.692-3.869-4.043
				c-1.311-1.322-2.554-2.729-3.919-3.981c-5.339-5.172-10.956-9.974-16.953-14.268c-6.021-4.259-12.501-7.927-19.151-11.56
				c-6.646-3.631-13.449-7.23-20.051-11.209c-3.341-1.917-6.564-4.038-9.829-6.084l-1.221-0.772l-1.231-0.832l-2.361-1.605
				c-1.576-1.097-3.142-2.081-4.727-3.27c-1.577-1.164-3.173-2.3-4.729-3.487c-1.521-1.238-3.094-2.4-4.565-3.701
				c-1.498-1.258-2.962-2.615-4.287-3.748l-0.971-0.813c-0.317-0.23-0.624-0.41-0.933-0.625l-0.461-0.314l-0.528-0.249l-1.056-0.505
				c-0.759-0.317-1.628-0.583-2.436-0.882c-0.818-0.294-1.756-0.524-2.628-0.79c-1.753-0.531-3.605-0.994-5.425-1.478l-11.036-2.828
				l-22.139-5.683l-22.097-5.846c-7.359-1.943-14.726-4.021-22.024-5.819c-3.621-0.933-7.291-1.547-10.99-2.149
				c-3.751-0.489-7.477-1.025-11.267-1.453l-22.675-2.717c-7.563-0.89-15.115-1.877-22.673-2.812
				c-7.559-0.927-15.109-1.919-22.66-2.898l-22.654-2.928l-2.831-0.366l-2.814-0.326c-1.891-0.211-3.783-0.449-5.67-0.638
				c-3.768-0.3-7.523-0.676-11.317-0.834c-15.145-0.889-30.359-0.533-45.524,0.404c-15.166,0.989-30.298,2.599-45.36,4.723
				c-15.063,2.124-30.051,4.778-44.962,7.796C344.402,45.211,329.549,48.57,314.869,52.512z M314.613,51.639
				c14.709-4.013,29.555-7.432,44.471-10.538c14.917-3.098,29.923-5.764,44.993-8.023c15.066-2.285,30.217-4.058,45.425-5.209
				c15.21-1.086,30.485-1.61,45.761-0.989c3.816,0.099,7.643,0.419,11.469,0.665c1.902,0.16,3.79,0.367,5.686,0.549l2.863,0.286
				l2.836,0.321l22.688,2.567c7.561,0.872,15.127,1.692,22.696,2.48c7.569,0.787,15.132,1.628,22.706,2.371l22.726,2.279
				c3.782,0.353,7.604,0.826,11.41,1.249c3.824,0.545,7.68,1.118,11.454,2.012c1.916,0.391,3.766,0.846,5.606,1.307l5.56,1.37
				l11.077,2.742l22.169,5.411l22.209,5.247l11.14,2.627c1.867,0.459,3.718,0.882,5.62,1.416c0.953,0.271,1.873,0.475,2.854,0.801
				c0.984,0.337,1.945,0.614,2.948,1.01l1.535,0.693l0.764,0.357l0.738,0.46c0.484,0.311,0.996,0.621,1.451,0.943l1.241,0.992
				l4.382,3.684c1.402,1.196,2.919,2.265,4.37,3.405c1.491,1.092,3.019,2.133,4.523,3.204c1.479,1.072,3.156,2.088,4.725,3.135
				l2.391,1.559l1.147,0.746l1.202,0.736c3.215,1.95,6.382,3.973,9.673,5.797c6.495,3.791,13.205,7.219,19.971,10.791
				c6.757,3.567,13.61,7.307,20.094,11.754c3.18,2.294,6.406,4.551,9.378,7.102c3.095,2.423,5.902,5.127,8.78,7.765
				c1.449,1.311,2.747,2.748,4.128,4.117c1.352,1.392,2.742,2.754,4.061,4.171c2.574,2.88,5.209,5.719,7.73,8.637l7.413,8.859
				l7.145,9.082l1.78,2.272l1.709,2.287l3.418,4.574l3.417,4.573l0.854,1.144l0.862,1.225l1.642,2.354l13.115,18.849
				c1.084,1.577,2.197,3.134,3.256,4.728l3.091,4.842l6.181,9.686c2.048,3.236,4.146,6.44,6.153,9.704l5.817,9.92l5.816,9.922
				l5.471,10.132l2.728,5.071c0.915,1.687,1.828,3.375,2.655,5.114l5.102,10.351c0.874,1.711,1.645,3.484,2.44,5.242l2.379,5.279
				c0.815,1.743,1.537,3.557,2.28,5.355l1.11,2.7c0.371,0.898,0.721,1.881,1.08,2.819l-0.477-0.98
				c1.809,2.883,3.339,5.63,4.934,8.47l2.291,4.258l2.206,4.295c2.88,5.754,5.633,11.568,8.129,17.496l1.873,4.445l1.755,4.494
				c1.207,2.982,2.262,6.023,3.339,9.056c1.122,3.017,2.048,6.104,3.034,9.169c1.026,3.053,1.836,6.176,2.712,9.278
				c0.915,3.091,1.627,6.241,2.366,9.382c0.362,1.575,0.758,3.132,1.094,4.722l0.916,4.817l0.911,4.818
				c0.273,1.593,0.455,3.141,0.687,4.713l0.66,4.7l0.165,1.175l0.092,0.683l0.064,0.592l0.258,2.37l2.066,18.961
				c0.609,6.329,1.112,12.67,1.674,19.005l0.399,4.753l0.304,4.762l0.608,9.524c0.477,6.344,0.614,12.713,0.894,19.071l0.188,4.77
				c0.056,1.59,0.062,3.184,0.095,4.775l0.161,9.55c0.083,3.183,0.051,6.369,0.03,9.555l-0.055,9.557l-0.26,9.561l-0.136,4.779
				l-0.231,4.779c-0.171,3.187-0.302,6.373-0.508,9.559l-0.701,9.555c-0.268,3.185-0.601,6.367-0.898,9.55
				c-0.325,3.183-0.738,6.363-1.106,9.544c-0.465,3.182-0.853,6.359-1.407,9.542c-0.253,1.59-0.521,3.182-0.83,4.78
				c-0.294,1.614-0.604,3.152-0.997,4.887l-0.014-2.192c0.176,0.751,0.202,1.092,0.286,1.592c0.084,0.488,0.104,0.888,0.153,1.329
				l0.122,1.295l0.059,1.25c0.11,1.683,0.061,3.292,0.061,4.926c-0.025,1.624-0.146,3.213-0.218,4.821
				c-0.098,1.599-0.286,3.169-0.427,4.755c-0.125,1.59-0.365,3.146-0.576,4.71c-0.229,1.559-0.398,3.136-0.676,4.68l-0.817,4.637
				l-0.409,2.318l-0.483,2.295c-1.234,6.137-2.746,12.184-4.307,18.211l-2.525,8.978c-0.832,2.995-1.825,5.932-2.73,8.9
				c-1.781,5.949-3.89,11.772-5.875,17.642c-2.041,5.852-4.284,11.646-6.417,17.471l-6.813,17.148l-7.487,17.119
				c-2.703,5.596-5.498,11.15-8.258,16.719l-4.521,8.159l-2.262,4.077l-1.133,2.038c-0.384,0.676-0.809,1.328-1.211,1.994
				l-4.892,7.944c-0.82,1.321-1.62,2.654-2.458,3.965l-2.618,3.863l-5.237,7.725l-5.549,7.508l-2.782,3.749l-2.934,3.634
				c-1.977,2.406-3.868,4.88-5.914,7.229l-6.156,7.032c-2.105,2.298-4.272,4.542-6.406,6.813c-2.141,2.267-4.425,4.401-6.637,6.601
				c-2.241,2.173-4.592,4.239-6.891,6.354c-2.395,2.023-4.725,4.105-7.212,6.038l-1.841,1.472l-1.896,1.427
				c-0.634,0.474-1.256,0.954-1.921,1.413c-0.661,0.466-1.285,0.921-2.031,1.41l0.712-0.609c-4.688,4.996-9.431,9.61-14.342,14.18
				l-3.67,3.415l-3.735,3.336l-3.736,3.336l-3.808,3.25c-5.032,4.387-10.271,8.522-15.452,12.723
				c-5.313,4.032-10.519,8.205-15.971,12.048c-21.565,15.687-44.237,29.856-67.927,42.089l-17.999,8.824l-18.209,7.996
				c-12.517,5.177-25.377,8.837-38.438,11.688c-26.118,5.694-52.756,7.924-79.314,8.76c-13.29,0.313-26.58,0.332-39.861-0.01
				c-13.277-0.401-26.542-1.094-39.785-2.054c-13.239-1.016-26.46-2.241-39.65-3.747c-13.191-1.502-26.345-3.317-39.46-5.375
				c-13.111-2.085-26.194-4.373-39.201-7.088c-3.252-0.676-6.502-1.364-9.739-2.119c-3.245-0.713-6.475-1.508-9.703-2.307
				c-1.618-0.384-3.225-0.818-4.833-1.251c-1.607-0.44-3.217-0.837-4.823-1.313l-4.82-1.419l-4.73-1.543
				c-12.552-4.493-25.009-8.974-37.298-14.127c-6.148-2.556-12.235-5.244-18.192-8.432l-1.119-0.606l-1.144-0.69
				c-0.386-0.23-0.766-0.463-1.094-0.695c-0.071-0.043-0.315-0.238-0.327-0.248l-0.243-0.192l-0.487-0.386l-3.897-3.087
				l-7.794-6.172l-62.442-49.271c-20.997-16.358-40.559-34.712-58.071-54.868l-6.394-7.707c-2.121-2.578-4.299-5.111-6.276-7.804
				l-6.069-7.971l-1.515-1.995l-1.438-2.051l-2.875-4.103c-7.77-10.873-14.754-22.289-21.372-33.898l-4.797-8.804
				c-0.818-1.457-1.573-2.948-2.313-4.446l-2.246-4.481c-3.084-5.935-5.747-12.069-8.568-18.131
				c-5.34-12.259-10.146-24.749-14.367-37.44c-4.238-12.686-7.79-25.595-10.833-38.62c-3.031-13.029-5.446-26.207-7.175-39.488
				c-0.857-6.643-1.555-13.309-2.061-20.003c-0.24-3.351-0.449-6.702-0.567-10.077c-0.067-1.694-0.108-3.357-0.124-5.109
				c-0.014-1.699,0.037-3.33,0.052-4.999l0.608-39.839l0.086-4.979l0.194-4.979l0.388-9.957l0.799-19.912
				c0.204-6.639,0.709-13.269,1.114-19.901l1.291-19.893c0.512-6.627,1.16-13.248,1.733-19.87l0.887-9.933l1.117-9.919l1.121-9.917
				c0.353-3.307,0.877-6.605,1.308-9.907c0.866-6.622,1.886-13.16,3.124-19.844l-0.055,0.432c0.238-2.656,0.728-5.09,1.314-7.455
				c0.583-2.368,1.264-4.666,1.977-6.945c0.727-2.27,1.482-4.522,2.28-6.75c0.792-2.231,1.61-4.446,2.457-6.646
				c3.368-8.808,7.032-17.453,10.804-26.043c3.783-8.584,7.704-17.097,11.702-25.569c4.003-8.474,8.074-16.896,12.264-25.294
				l-0.07,0.159l2.135-4.604l1.068-2.3l0.535-1.149c0.188-0.376,0.4-0.738,0.6-1.107l2.427-4.41
				c0.831-1.455,1.567-2.973,2.478-4.372c1.762-2.838,3.49-5.7,5.279-8.516l5.562-8.305c3.827-5.445,7.68-10.868,11.705-16.155
				c1.972-2.676,4.011-5.297,6.057-7.912c2.038-2.622,4.07-5.248,6.166-7.821c4.138-5.19,8.35-10.319,12.593-15.419
				c4.262-5.085,8.562-10.136,12.917-15.139c4.357-5.002,8.754-9.965,13.219-14.878l1.679-1.837c0.6-0.635,1.183-1.183,1.776-1.778
				l3.542-3.505l7.074-7.017c2.402-2.291,4.91-4.472,7.359-6.713l3.694-3.34c1.24-1.104,2.438-2.255,3.74-3.287l7.68-6.339
				l3.839-3.169l3.962-3.013l7.938-6.008c2.659-1.984,5.428-3.818,8.136-5.734c5.383-3.884,11.042-7.355,16.594-10.985
				c2.802-1.775,5.679-3.429,8.514-5.149l4.271-2.55l4.348-2.418c5.762-3.288,11.669-6.31,17.58-9.316
				c2.989-1.437,5.958-2.915,8.963-4.318c3.03-1.349,6.024-2.779,9.084-4.062c6.091-2.63,12.257-5.083,18.556-7.215l0.009-0.003
				L314.613,51.639z"/>
		</g>
		<g>
			<path fill="#E16E6B" d="M174.877,434.302c0.244-1.64,0.536-3.253,0.893-4.883c0.345-1.631,0.726-3.252,1.206-4.854
				c0.442-1.615,0.978-3.207,1.56-4.79c0.567-1.591,1.22-3.158,1.939-4.704c0.709-1.551,1.474-3.093,2.346-4.58
				c0.419-0.755,0.867-1.495,1.334-2.226c0.45-0.744,0.94-1.461,1.433-2.181c0.995-1.432,2.077-2.809,3.199-4.16
				c0.563-0.675,1.156-1.321,1.738-1.985c0.602-0.64,1.219-1.269,1.842-1.892c1.263-1.225,2.561-2.419,3.91-3.546
				c1.342-1.138,2.739-2.206,4.165-3.213c1.419-1.025,2.874-1.985,4.343-2.908c1.463-0.938,2.969-1.785,4.474-2.614
				c1.507-0.83,3.025-1.623,4.551-2.381c1.521-0.772,3.062-1.487,4.604-2.172c1.542-0.697,3.087-1.357,4.632-2.01
				c1.547-0.65,3.089-1.288,4.646-1.885l0.272-0.104l0.31-0.072l1.829-0.424l1.556-0.268c1-0.151,1.955-0.279,2.89-0.384
				c1.862-0.206,3.672-0.375,5.46-0.495c3.58-0.22,7.102-0.359,10.613-0.463c3.509-0.098,7.005-0.092,10.495-0.105
				c1.743,0.007,3.488-0.01,5.229,0.022l5.221,0.104c3.478,0.086,6.954,0.145,10.424,0.316l5.206,0.23
				c1.734,0.085,3.469,0.146,5.202,0.264l10.395,0.672l10.397,0.859l1.218,0.101l0.564,0.226l9.434,3.774
				c3.129,1.305,6.268,2.579,9.388,3.91c3.116,1.344,6.242,2.658,9.34,4.055l4.653,2.079l4.637,2.127l-0.33-0.09
				c0.791,0.39,1.578,0.8,2.368,1.198c0.787,0.408,1.569,0.842,2.354,1.263c0.778,0.452,1.563,0.872,2.333,1.362
				c0.771,0.481,1.549,0.933,2.31,1.464c-0.912,0.167-1.808,0.257-2.709,0.375c-0.903,0.127-1.792,0.184-2.687,0.273
				c-0.889,0.058-1.78,0.129-2.666,0.174c-0.884,0.036-1.77,0.083-2.651,0.109l-0.33-0.091l-4.987-1.075l-4.971-1.123
				c-3.317-0.738-6.607-1.559-9.907-2.35c-3.296-0.804-6.572-1.666-9.859-2.495l-9.814-2.631l1.782,0.326l-10.336,0.101
				l-10.343,0.024c-1.724,0.019-3.446-0.015-5.168-0.019l-5.165-0.023c-3.444,0.008-6.882-0.063-10.32-0.089l-20.55-0.178
				c-3.404-0.034-6.798-0.033-10.127,0.04c-1.667,0.02-3.31,0.054-4.895,0.127c-0.788,0.035-1.553,0.089-2.269,0.146l-1.011,0.1
				c-0.245,0.04-0.47,0.074-0.711,0.099l0.582-0.176l-4.545,1.432c-1.507,0.484-3.009,0.975-4.49,1.493
				c-1.488,0.51-2.956,1.046-4.42,1.575c-1.466,0.532-2.913,1.089-4.338,1.676c-1.431,0.58-2.833,1.204-4.228,1.828
				c-1.396,0.627-2.771,1.284-4.108,1.994c-1.351,0.695-2.656,1.451-3.959,2.214c-1.301,0.767-2.558,1.595-3.798,2.455
				c-1.222,0.878-2.437,1.778-3.612,2.735c-1.167,0.965-2.312,1.969-3.405,3.037c-0.554,0.528-1.112,1.057-1.638,1.619
				c-0.541,0.549-1.071,1.111-1.579,1.696c-0.528,0.57-1.021,1.168-1.525,1.766c-0.515,0.589-1,1.205-1.484,1.825
				c-0.496,0.612-0.958,1.251-1.424,1.891c-0.477,0.634-0.934,1.284-1.387,1.941c-0.465,0.65-0.901,1.32-1.335,1.996
				c-0.441,0.671-0.883,1.347-1.301,2.038c-0.432,0.684-0.854,1.376-1.257,2.081c-0.417,0.698-0.851,1.395-1.242,2.106
				C176.453,431.392,175.688,432.86,174.877,434.302z"/>
		</g>
		<path fill="#E16E6B" d="M326.631,407.475l-17.968,9.988l-41.336,14.246c0,0-34.496,8.196-47.766-0.842
			c-5.237-3.624-35.917-28.779-30.635-28.006c8.618,1.138,21.927-18.551,64.189-20.463c77.867-3.713,94.894,12.801,94.894,12.801"/>
		<path fill="#E16E6B" stroke="#E16E6B" stroke-width="2.2717" stroke-miterlimit="10" d="M811.575,408.364
			c0,13.553-10.74,24.295-24.175,24.295c-13.434,0-24.234-10.742-24.234-24.295c0-13.285,10.801-24.055,24.234-24.055
			C800.835,384.309,811.575,395.079,811.575,408.364z"/>
		<path fill="#F5897F" d="M498.837,507.432h46.959l-10.325-56.102c-13.088-22.136-26.269,0-26.269,0L498.837,507.432z"/>
		<g>
			<g>
				<path fill="#E16E6B" d="M466.127,270.753c-0.055,0.348,2.897,0.37-1.582,1.038c-7.029,0.895-13.348,0.376-18.45-1.384
					l-0.949-0.328l-0.897-0.383c-0.617-0.228-1.15-0.548-1.715-0.821c-0.567-0.272-1.045-0.633-1.583-0.924
					c-0.42-0.338-0.861-0.578-1.252-0.94c-0.366-0.396-0.78-0.706-1.154-1.114c-0.337-0.442-0.791-0.818-1.089-1.269
					c-0.282-0.457-0.695-0.845-0.912-1.333c-0.132-0.232-0.271-0.46-0.418-0.687c-0.136-0.233-0.218-0.496-0.344-0.737
					c-0.268-0.097-0.552-0.218-0.842-0.343c-1.104-3.378-0.817-7.842,0.657-12.669c1.433-4.821,3.977-9.872,6.998-14.777
					c2.577-4.444,5.552-8.791,8.764-12.957c3.223-4.14,6.705-8.167,10.268-11.705l56.169-55.764l-68.839,39.003
					c-3.465,1.963-6.593,4.299-9.347,6.755c-2.779,2.461-5.1,5.023-7.273,7.482c-2.169,2.468-4.119,4.86-5.989,7.052
					c-1.878,2.188-3.685,4.267-5.507,6.026c0.55-0.194,0.909-0.148-0.464,1.256c-0.736,0.694-1.509,1.427-2.342,2.072
					c-0.416,0.329-0.825,0.708-1.273,0.998c-0.513,0.362-1.036,0.731-1.566,1.105c-1.205,0.9-2.449,1.828-3.727,2.782
					c-1.155,0.848-2.333,1.78-3.563,2.559c-1.224,0.816-2.473,1.648-3.743,2.495c-1.27,0.844-2.621,1.561-3.951,2.367
					c-0.668,0.395-1.341,0.792-2.017,1.19c-0.678,0.392-1.388,0.715-2.083,1.08c-1.402,0.701-2.797,1.453-4.222,2.14
					c-1.686,0.789-3.372,1.578-5.03,2.354c-1.255,0.705-1.53,1.009-1.685,1.252c-1.343,0.472-2.648,0.931-3.921,1.378
					c-0.63,0.246-1.274,0.405-1.908,0.566c-0.633,0.166-1.258,0.328-1.876,0.489c-1.239,0.309-2.426,0.67-3.625,0.918
					c-1.211,0.209-2.396,0.415-3.558,0.615c-2.488,0.571-4.892,1.005-7.085,1.217c-2.229,0.222-4.381,0.237-6.379,0.019
					c-4.022-0.447-7.271-1.784-9.936-4.136c-2.653-2.372-4.813-5.971-6.214-10.364c-0.704-2.188-1.245-4.538-1.621-6.989
					c-0.179-1.23-0.341-2.474-0.458-3.743c-0.115-1.236-0.215-2.637-0.257-3.719c-0.027-4.474,0.788-9.74,2.159-14.742
					c1.386-5.045,3.365-10.078,5.815-15.035l0.919-1.863l1.001-1.843l1.003-1.85l1.075-1.831c0.709-1.226,1.441-2.448,2.223-3.655
					c0.552-0.879,1.106-1.761,1.662-2.644c1.236-1.978,2.7-4.074,4.368-6.314l0.59-0.803c0.176,0.129,0.346,0.412,0.523,0.616
					c0.34,0.454,0.673,0.938,0.961,1.461c0.603,1.036,1.087,2.212,1.414,3.495c0.333,1.29,0.523,2.646,0.557,4.142l-0.008,1.245
					c-0.051,0.677-0.103,1.356-0.154,2.038c-0.151,1.38-0.31,2.776-0.597,4.175c-1.021,5.613-3.11,11.296-5.797,16.837
					c-1.37,2.765-2.883,5.503-4.532,8.197c-1.674,2.681-3.453,5.331-5.355,7.92c-8.97,12.631-20.247,23.916-32.396,33.002
					c-9.037,6.665-20.143,13.273-31.955,17.813c-5.9,2.242-11.96,4.017-17.889,4.856c-2.96,0.428-5.88,0.643-8.697,0.595
					c-2.813-0.065-5.516-0.405-8.018-1.028c0.67,0.548-1.934,0.579-6.051-0.925c-1.03-0.343-2.102-0.85-3.276-1.333
					c-1.136-0.55-2.326-1.178-3.532-1.869c-1.157-0.764-2.418-1.48-3.545-2.405c-0.573-0.45-1.18-0.87-1.733-1.353
					c-0.548-0.49-1.097-0.98-1.643-1.469c-4.345-3.978-7.463-8.841-9.26-11.897c-0.93-1.523-1.508-2.623-1.825-2.977
					c-0.315-0.354-0.341,0.022,0.017,1.383c-1.526-3.497-2.803-7.596-3.719-11.774c-0.919-4.18-1.45-8.443-1.708-12.277
					c-0.282-3.835-0.235-7.244-0.186-9.759c0.068-2.517,0.156-4.145,0.112-4.439c-0.166-0.89-0.28-2.289-0.212-4.513
					c0.069-2.223,0.315-5.277,1.085-9.421c0.181-1.038,0.409-2.141,0.69-3.312c0.255-1.177,0.588-2.416,0.957-3.73
					c0.345-1.32,0.822-2.693,1.287-4.157c0.522-1.449,1.052-2.971,1.757-4.619c0.174-0.406,0.33-0.831,0.527-1.235
					c0.214-0.394,0.431-0.793,0.651-1.198c0.442-0.807,0.896-1.635,1.361-2.484c0.479-0.833,1.001-1.649,1.521-2.505
					c0.52-0.854,1.056-1.726,1.661-2.584c2.303-3.508,5.13-7.147,8.467-10.894c5.196-5.914,12.635-12.465,19.336-17.792
					c6.707-5.333,12.573-9.659,14.75-11.301c1.646-1.372,1.508-1.257,0.478-0.398c-1.033,0.854-3.081,2.302-5.083,3.808
					c-4.026,2.983-8.041,6.001-4.625,3.393c-5.761,4.303-11.401,8.778-16.775,13.624c-5.37,4.841-10.414,10.137-14.877,15.957
					c-1.123,1.449-2.167,2.961-3.233,4.459l-1.51,2.31c-0.51,0.761-1.006,1.545-1.476,2.374l-1.436,2.449
					c-0.484,0.814-0.826,1.735-1.238,2.605c-0.417,0.895-0.731,1.734-1.09,2.6c-0.361,0.857-0.685,1.726-0.998,2.597
					c-2.574,6.958-4.276,14.187-5.309,21.535c-0.482,3.679-0.788,7.391-0.905,11.126c-0.084,3.737,0.049,7.496,0.396,11.263
					c0.757,7.52,2.448,15.118,5.696,22.342c3.17,7.225,8.08,14.008,14.436,19.292c3.198,2.612,6.723,4.804,10.411,6.611l2.811,1.25
					c0.937,0.414,2.051,0.756,3.075,1.125c1.045,0.301,2.097,0.598,3.148,0.848c1.046,0.202,2.106,0.457,3.15,0.596
					c8.413,1.258,16.457,0.332,24.022-1.351c7.577-1.723,14.736-4.342,21.612-7.416c13.728-6.21,26.32-14.332,37.912-23.807
					c5.791-4.749,11.309-9.874,16.508-15.397c5.197-5.525,10.052-11.476,14.415-17.945c4.334-6.489,8.208-13.499,11.032-21.294
					c1.4-3.9,2.536-7.993,3.25-12.281c0.206-1.06,0.32-2.159,0.452-3.25l0.094-0.82l0.046-0.41l0.024-0.625l0.098-2.51
					c0.01-0.849,0.116-1.647,0.047-2.538l-0.121-2.629l-0.061-1.314l-0.03-0.657l-0.101-0.626l-0.412-2.501
					c-0.801-4.076-2.213-9.4-5.032-14.378c-0.724-1.197-1.481-2.451-2.273-3.759c-0.828-1.283-1.69-2.62-2.586-4.009
					c-0.943-1.458-1.922-2.972-2.936-4.539c-0.263-0.405-0.527-0.814-0.794-1.226c-0.268-0.415-0.547-0.853-0.758-1.135
					c-0.457-0.642-0.92-1.294-1.392-1.957c-3.562,4.295-7.387,8.909-11.453,13.813c-2.025,2.382-4.101,5.117-6.231,7.784
					l-0.801,1.014l-0.778,1.082c-0.52,0.723-1.043,1.451-1.569,2.184c-0.526,0.731-1.056,1.468-1.588,2.209l-0.801,1.114
					l-0.394,0.541c-0.111,0.116-0.194,0.225-0.257,0.33c-4.584,6.793-9.388,14.629-13.222,24.001c-1.892,4.683-3.62,9.7-4.732,15.12
					c-0.343,1.33-0.517,2.728-0.761,4.109c-0.113,0.694-0.226,1.39-0.34,2.088c-0.09,0.733-0.156,1.502-0.231,2.255
					c-0.069,0.758-0.139,1.518-0.208,2.28l-0.098,1.146l0.01,1.167c0.012,0.764,0.013,1.595,0.043,2.31
					c0.032,0.707,0.064,1.417,0.096,2.128c0.356,5.707,1.179,11.7,3.265,17.898c1.044,3.09,2.413,6.226,4.254,9.279
					c1.829,3.05,4.186,6.009,7.043,8.566c2.849,2.56,6.189,4.685,9.708,6.192c3.522,1.526,7.185,2.406,10.749,2.858
					c7.123,0.906,14.024,0.031,19.909-1.253c12.159-2.379,24.175-7.032,34.698-13.389c2.595-1.637,5.288-3.164,7.734-4.958
					l3.738-2.61c1.213-0.889,2.359-1.813,3.541-2.717l1.758-1.362l0.878-0.68l0.387-0.284l2.081-1.514l1.953-1.603
					c2.56-2.159,4.876-4.454,6.937-6.735c2.101-2.283,3.976-4.55,5.752-6.697c1.789-2.17,3.445-4.193,5.097-6.056
					c1.642-1.897,3.26-3.496,4.888-4.966c1.621-1.461,3.287-2.59,4.965-3.633c-3.913-5.176-7.644-10.111-11.375-15.047
					c-4.579,4.682-8.508,9.474-12.169,14.388c-3.637,4.917-6.908,9.97-9.757,15.188c-2.814,5.246-5.266,10.618-6.945,16.34
					c-0.86,2.839-1.494,5.788-1.869,8.804c-0.416,2.992-0.433,6.139-0.136,9.25c0.274,3.121,1.145,6.266,2.32,9.188
					c0.338,0.719,0.673,1.434,1.007,2.144c0.321,0.716,0.78,1.354,1.171,2.022c0.775,1.353,1.745,2.511,2.674,3.678
					c0.451,0.604,0.995,1.071,1.489,1.602c0.513,0.509,0.998,1.029,1.536,1.504c0.56,0.459,1.115,0.915,1.667,1.367
					c0.561,0.441,1.09,0.908,1.708,1.262c0.602,0.371,1.199,0.74,1.792,1.105c0.593,0.352,1.154,0.609,1.729,0.909
					c1.135,0.611,2.283,1.046,3.407,1.514c4.521,1.746,8.777,2.457,12.582,2.827c3.812,0.348,7.212,0.314,10.206,0.144
					c2.295-0.166,4.551-0.401,6.768-0.732c10.021-1.427,19.947-4.361,29.618-8.156c4.831-1.916,9.606-4.028,14.283-6.422
					c4.668-2.381,9.257-5.113,13.624-8.002c8.656-5.945,16.35-12.857,22.717-20.112c6.351-7.278,11.463-14.79,15.486-21.824
					c7.336-12.956,12.738-26.999,16.77-41.197c-2.119,6.526-4.446,12.458-6.683,17.506c5.819-13.917,9.422-28.503,10.566-34.12
					c1.719-7.773,2.434-12.558,2.844-15.114c0.406-2.558,0.368-2.916,0.146-1.914c-0.231,1.032-0.755,3.357-1.389,6.176
					c-0.68,2.825-1.48,6.139-2.331,9.068c-1.119,4.24-1.131,3.438-1.199,3.264c-0.046-0.091-0.132-0.031-0.446,0.873
					c-0.333,0.898-0.812,2.664-1.881,5.916c1.425-4.722,2.362-8.306,3.259-11.905c0.896-3.599,1.723-7.222,2.715-12.081
					c0.021-0.285-0.352,1.438-0.905,4.076c-0.6,2.628-1.374,6.174-2.24,9.512c-0.405,1.676-0.839,3.298-1.248,4.737
					c-0.404,1.44-0.743,2.707-1.038,3.651c-0.593,1.887-0.84,2.529-0.429,0.863c2.824-9.077,5.08-19.507,6.907-29.213
					c-0.398,1.667-2.018,10.076-4.004,17.756c-0.969,3.846-2.029,7.505-2.804,10.115c-0.83,2.593-1.358,4.142-1.319,3.758
					c0.789-2.537,2.862-9.146,4.462-15.456c1.595-6.308,2.804-12.276,2.863-13.235c0.081-0.367-1.996,9.295-3.232,14.072
					c3.644-14.751,5.333-26.456,6.001-30.924c0.311-2.241,0.355-2.681,0.038-0.848c-0.162,0.916-0.396,2.403-0.796,4.506
					c-0.194,1.053-0.418,2.261-0.671,3.632c-0.276,1.368-0.585,2.897-0.928,4.598c0.952-4.72,1.977-10.447,2.879-16.27
					c0.893-5.825,1.625-11.747,2.214-16.825c-0.002,0.012-0.007,0.055-0.009,0.078c-0.556,5.071-1.733,13.782-2.49,18.422
					c0.887-5.71,1.691-11.464,2.345-17.228c-0.112,0.909-0.239,1.936-0.373,3.017c-0.542,4.296-1.157,8.603-1.855,13.062
					c0.286-1.896,0.573-3.796,0.861-5.698c0.261-1.907,0.522-3.817,0.783-5.729c-0.403,2.855-0.866,6.139-1.478,9.725
					c-1.099,6.767-2.438,13.337-3.748,19.095c-1.338,5.753-2.657,10.691-3.642,14.238c-3.915,14.336-8.963,28.33-15.507,41.447
					c-6.538,13.103-14.654,25.312-24.544,35.633c-9.855,10.357-21.479,18.672-34.256,24.546c-6.445,2.959-13.184,5.498-19.977,7.561
					C479.754,268.361,472.872,269.972,466.127,270.753z"/>
			</g>
		</g>
		<path fill="#F5897F" d="M590.435,568.286c0,5.088-7.87,9.336-17.412,9.336h-98.395c-9.603,0-17.474-4.248-17.474-9.336v-1.613
			c0-5.147,7.871-9.396,17.474-9.396h98.395c9.542,0,17.412,4.248,17.412,9.396V568.286z"/>
		<g>
			<g>
				<g>
					<path fill="#F5897F" d="M754.182,494.397c22.907,26.063,34.988,59.421,58.043,85.476c7.294,8.244,19.299-3.852,12.047-12.047
						c-22.996-25.99-35.086-59.357-58.043-85.476C758.962,474.083,746.959,486.181,754.182,494.397L754.182,494.397z"/>
				</g>
			</g>
			<g>
				<g>
					<path fill="#F5897F" d="M813.066,493.556c3.786,3.925,6.766,8.614,10.604,14.233c5.567,8.154,10.919,16.457,16.23,24.779
						c6.803,10.662,13.511,21.387,20.104,32.179c4.918,8.048,17.596,0.69,12.654-7.396c-6.783-11.101-13.691-22.127-20.689-33.094
						c-5.286-8.285-10.639-16.531-16.182-24.647c-3.817-5.591-7.644-11.527-12.358-16.417
						C816.858,476.38,806.508,486.754,813.066,493.556L813.066,493.556z"/>
				</g>
			</g>
			<g>
				<g>
					<path fill="#F5897F" d="M859.368,492.444c10.957,16.875,21.94,33.744,32.5,50.873c1.888,3.063,3.77,6.134,5.536,9.269
						c0.403,0.715,0.798,1.435,1.157,2.173c0.615,1.266-0.892-2.251-0.529-1.273c-0.552-1.487,0.396-5.858,2.118-7.497
						c1.187-0.691,2.373-1.383,3.56-2.074c2.84-1.153,5.98,0.451,7.557,1.903c-0.094-0.087-0.181-0.182-0.267-0.276
						c-0.109-0.12-0.215-0.245-0.316-0.372c-2.758-3.432-8.551-2.854-11.406,0c-3.358,3.359-2.751,7.982,0,11.406
						c1.07,1.331,2.706,2.604,4.403,2.899c6.122,1.064,11.646-3.796,9.943-10.158c-0.38-1.423-1.197-2.877-1.911-4.186
						c-11.443-20.979-25.423-40.814-38.417-60.827C867.655,475.616,853.686,483.692,859.368,492.444L859.368,492.444z"/>
				</g>
			</g>
		</g>
		<path fill="#F5897F" d="M188.281,527.864c0,16.306-13.136,29.413-29.367,29.413h-44.371c-16.23,0-29.412-13.107-29.412-29.413l0,0
			c0-16.275,13.182-29.371,29.412-29.371h44.371C175.145,498.493,188.281,511.589,188.281,527.864L188.281,527.864z"/>
	</g>
</g>
</svg>
